<?xml version="1.0" encoding="us-ascii" standalone="no"?><svg xmlns="http://www.w3.org/2000/svg" xmlns:xlink="http://www.w3.org/1999/xlink" contentStyleType="text/css" height="453px" preserveAspectRatio="none" style="width:445px;height:453px;background:#FFFFFF;" version="1.1" viewBox="0 0 445 453" width="445px" zoomAndPan="magnify"><defs/><g><!--entity barbero--><g id="elem_barbero"><ellipse cx="55.5" cy="250.66" fill="#F1F1F1" rx="16" ry="16" style="stroke:#181818;stroke-width:0.5;"/><path d="M55.5,270.66 C59.5,270.66 62.5,270.66 66.5,266.66 C74.5,266.66 82.5,274.66 82.5,282.66 L82.5,286.66 C82.5,290.66 78.5,294.66 74.5,294.66 L36.5,294.66 C32.5,294.66 28.5,290.66 28.5,286.66 L28.5,282.66 C28.5,274.66 36.5,266.66 44.5,266.66 C48.5,270.66 51.5,270.66 55.5,270.66 " fill="#F1F1F1" style="stroke:#181818;stroke-width:0.5;"/><text fill="#000000" font-family="sans-serif" font-size="14" lengthAdjust="spacing" textLength="56" x="27.5" y="309.2352">Barbero</text></g><!--entity admin--><g id="elem_admin"><ellipse cx="55.5" cy="363.66" fill="#F1F1F1" rx="16" ry="16" style="stroke:#181818;stroke-width:0.5;"/><path d="M55.5,383.66 C59.5,383.66 62.5,383.66 66.5,379.66 C74.5,379.66 82.5,387.66 82.5,395.66 L82.5,399.66 C82.5,403.66 78.5,407.66 74.5,407.66 L36.5,407.66 C32.5,407.66 28.5,403.66 28.5,399.66 L28.5,395.66 C28.5,387.66 36.5,379.66 44.5,379.66 C48.5,383.66 51.5,383.66 55.5,383.66 " fill="#F1F1F1" style="stroke:#181818;stroke-width:0.5;"/><text fill="#000000" font-family="sans-serif" font-size="14" lengthAdjust="spacing" textLength="99" x="6" y="422.2352">Administrador</text></g><!--entity cliente--><g id="elem_cliente"><ellipse cx="55.5" cy="69.66" fill="#F1F1F1" rx="16" ry="16" style="stroke:#181818;stroke-width:0.5;"/><path d="M55.5,89.66 C59.5,89.66 62.5,89.66 66.5,85.66 C74.5,85.66 82.5,93.66 82.5,101.66 L82.5,105.66 C82.5,109.66 78.5,113.66 74.5,113.66 L36.5,113.66 C32.5,113.66 28.5,109.66 28.5,105.66 L28.5,101.66 C28.5,93.66 36.5,85.66 44.5,85.66 C48.5,89.66 51.5,89.66 55.5,89.66 " fill="#F1F1F1" style="stroke:#181818;stroke-width:0.5;"/><text fill="#000000" font-family="sans-serif" font-size="14" lengthAdjust="spacing" textLength="47" x="32" y="128.2352">Cliente</text></g><g id="elem_Ver Citas Futuras"><ellipse cx="302.4148" cy="242.167" fill="#F1F1F1" rx="82.7848" ry="18.957" style="stroke:#181818;stroke-width:0.5;"/><text fill="#000000" font-family="sans-serif" font-size="14" lengthAdjust="spacing" textLength="123" x="240.9148" y="245.7348">Ver Citas Futuras</text></g><g id="elem_Destacar Citas Para el D&#237;a Actual"><ellipse cx="302.406" cy="324.1732" fill="#F1F1F1" rx="130.316" ry="28.4632" style="stroke:#181818;stroke-width:0.5;"/><text fill="#000000" font-family="sans-serif" font-size="14" lengthAdjust="spacing" textLength="228" x="188.406" y="327.7411">Destacar Citas Para el D&#237;a Actual</text></g><g id="elem_Ver Informaci&#243;n Detallada de Citas"><ellipse cx="302.4084" cy="417.1717" fill="#F1F1F1" rx="137.4084" ry="29.8817" style="stroke:#181818;stroke-width:0.5;"/><text fill="#000000" font-family="sans-serif" font-size="14" lengthAdjust="spacing" textLength="243" x="180.9084" y="420.7395">Ver Informaci&#243;n Detallada de Citas</text></g><g id="elem_Cancelar cita"><ellipse cx="302.4094" cy="22.1719" fill="#F1F1F1" rx="68.8594" ry="16.1719" style="stroke:#181818;stroke-width:0.5;"/><text fill="#000000" font-family="sans-serif" font-size="14" lengthAdjust="spacing" textLength="88" x="255.4094" y="26.4595">Cancelar cita</text></g><g id="elem_Reprogramar cita"><ellipse cx="302.4106" cy="92.1681" fill="#F1F1F1" rx="81.9406" ry="18.7881" style="stroke:#181818;stroke-width:0.5;"/><text fill="#000000" font-family="sans-serif" font-size="14" lengthAdjust="spacing" textLength="121" x="241.9106" y="95.736">Reprogramar cita</text></g><g id="elem_Confirmar cancelaci&#243;n"><ellipse cx="302.4062" cy="167.1652" fill="#F1F1F1" rx="95.3762" ry="21.4752" style="stroke:#181818;stroke-width:0.5;"/><text fill="#000000" font-family="sans-serif" font-size="14" lengthAdjust="spacing" textLength="152" x="226.4062" y="170.7331">Confirmar cancelaci&#243;n</text></g><!--link barbero to Ver Citas Futuras--><g id="link_barbero_Ver Citas Futuras"><path d="M83.65,269.73 C118.45,265.33 174.1976,258.2741 223.0576,252.0841 " fill="none" id="barbero-to-Ver Citas Futuras" style="stroke:#181818;stroke-width:1.0;"/><polygon fill="#181818" points="229.01,251.33,219.5786,248.4929,224.0496,251.9584,220.5841,256.4294,229.01,251.33" style="stroke:#181818;stroke-width:1.0;"/></g><!--link admin to Ver Citas Futuras--><g id="link_admin_Ver Citas Futuras"><path d="M91.88,346.86 C116.81,319.98 148.57,287.59 165,278.17 C185.72,266.29 204.6045,259.6352 227.2745,254.2152 " fill="none" id="admin-to-Ver Citas Futuras" style="stroke:#181818;stroke-width:1.0;"/><polygon fill="#181818" points="233.11,252.82,223.4266,251.0224,228.2471,253.9826,225.2868,258.8031,233.11,252.82" style="stroke:#181818;stroke-width:1.0;"/></g><!--link barbero to Destacar Citas Para el D?a Actual--><g id="link_barbero_Destacar Citas Para el D&#237;a Actual"><path d="M83.65,278.82 C113.35,285.01 156.756,294.0468 200.936,303.2468 " fill="none" id="barbero-to-Destacar Citas Para el D&#237;a Actual" style="stroke:#181818;stroke-width:1.0;"/><polygon fill="#181818" points="206.81,304.47,198.8145,298.7192,201.915,303.4507,197.1835,306.5512,206.81,304.47" style="stroke:#181818;stroke-width:1.0;"/></g><!--link admin to Destacar Citas Para el D?a Actual--><g id="link_admin_Destacar Citas Para el D&#237;a Actual"><path d="M105.47,373.77 C137.02,365.78 173.0734,356.6523 210.0134,347.3023 " fill="none" id="admin-to-Destacar Citas Para el D&#237;a Actual" style="stroke:#181818;stroke-width:1.0;"/><polygon fill="#181818" points="215.83,345.83,206.1236,344.1607,210.9829,347.0569,208.0866,351.9161,215.83,345.83" style="stroke:#181818;stroke-width:1.0;"/></g><!--link barbero to Ver Informaci?n Detallada de Citas--><g id="link_barbero_Ver Informaci&#243;n Detallada de Citas"><path d="M83.91,303.39 C104.48,324.54 134.27,352.14 165,370.17 C180.77,379.42 193.0075,385.1525 210.4975,391.5725 " fill="none" id="barbero-to-Ver Informaci&#243;n Detallada de Citas" style="stroke:#181818;stroke-width:1.0;"/><polygon fill="#181818" points="216.13,393.64,209.0595,386.7837,211.4362,391.9171,206.3029,394.2937,216.13,393.64" style="stroke:#181818;stroke-width:1.0;"/></g><!--link admin to Ver Informaci?n Detallada de Citas--><g id="link_admin_Ver Informaci&#243;n Detallada de Citas"><path d="M105.47,392.37 C127.81,395.19 149.3674,397.9269 176.6374,401.3769 " fill="none" id="admin-to-Ver Informaci&#243;n Detallada de Citas" style="stroke:#181818;stroke-width:1.0;"/><polygon fill="#181818" points="182.59,402.13,174.1632,397.032,177.6295,401.5024,173.1591,404.9688,182.59,402.13" style="stroke:#181818;stroke-width:1.0;"/></g><!--link cliente to Cancelar cita--><g id="link_cliente_Cancelar cita"><path d="M83.08,82.72 C104.93,75.1 136.79,64.35 165,56.17 C193.6,47.87 220.0847,41.156 246.0847,34.936 " fill="none" id="cliente-to-Cancelar cita" style="stroke:#181818;stroke-width:1.0;"/><polygon fill="#181818" points="251.92,33.54,242.2363,31.7438,247.0572,34.7033,244.0977,39.5242,251.92,33.54" style="stroke:#181818;stroke-width:1.0;"/></g><!--link cliente to Reprogramar cita--><g id="link_cliente_Reprogramar cita"><path d="M83.18,92.17 C115.84,92.17 166.69,92.17 214.17,92.17 " fill="none" id="cliente-to-Reprogramar cita" style="stroke:#181818;stroke-width:1.0;"/><polygon fill="#181818" points="220.17,92.17,211.17,88.17,215.17,92.17,211.17,96.17,220.17,92.17" style="stroke:#181818;stroke-width:1.0;"/></g><!--link cliente to Confirmar cancelaci?n--><g id="link_cliente_Confirmar cancelaci&#243;n"><path d="M83.15,101.36 C105.06,108.83 136.93,119.5 165,128.17 C189.71,135.8 211.3261,142.0984 235.0361,148.7984 " fill="none" id="cliente-to-Confirmar cancelaci&#243;n" style="stroke:#181818;stroke-width:1.0;"/><polygon fill="#181818" points="240.81,150.43,233.2369,144.1333,235.9984,149.0703,231.0614,151.8319,240.81,150.43" style="stroke:#181818;stroke-width:1.0;"/></g><!--SRC=[ZP71JiCm38RlUGhVHWxJxZqWZLP8t2QGTlTITxD8ayfnDUsXEF48Up6oDY31cE2M-FlznKdIAuS11Nj0fr5UzEG9y4WfzcHM2qXVt7CWFGq4KVGGOR4onbEde164zmU5beMSSWncKi43oeua0YROpSi2rctFWPCAjdcNCLuA1TQUAIXTocvU6cEg8gXWkRo7kotb76kEF8uw2YOBffeaDmDNZeQIeiFFt2RV4SX3Stv3M3iTqTllplyq_3ReK-YYzEZu_1wW8KNliKLeQHRPwyd_x31LUPhIL6DmvFDeBdFxapxJ876Vl_1Me8wXOvdmB9fEjkO3]--></g></svg>