<?xml version="1.0" encoding="UTF-8" standalone="no"?>
<!DOCTYPE svg PUBLIC "-//W3C//DTD SVG 1.1//EN"
 "http://www.w3.org/Graphics/SVG/1.1/DTD/svg11.dtd">
<!-- Generated by graphviz version 10.0.1 (0)
 -->
<!-- Title: Modelo Pages: 1 -->
<svg width="854pt" height="543pt"
 viewBox="0.00 0.00 853.65 542.50" xmlns="http://www.w3.org/2000/svg" xmlns:xlink="http://www.w3.org/1999/xlink">
<g id="graph0" class="graph" transform="scale(1 1) rotate(0) translate(4 538.5)">
<title>Modelo</title>
<polygon fill="white" stroke="none" points="-4,4 -4,-538.5 849.65,-538.5 849.65,4 -4,4"/>
<!-- cliente -->
<g id="node1" class="node">
<title>cliente</title>
<polygon fill="none" stroke="black" points="626.37,-215.22 571.37,-215.22 571.37,-179.22 626.37,-179.22 626.37,-215.22"/>
<text text-anchor="middle" x="598.87" y="-192.17" font-family="Times,serif" font-size="14.00">Cliente</text>
</g>
<!-- informacionPersonal -->
<g id="node2" class="node">
<title>informacionPersonal</title>
<polygon fill="none" stroke="black" points="253.34,-383.63 253.34,-406.13 417.59,-406.13 417.59,-383.63 253.34,-383.63"/>
<text text-anchor="start" x="276.59" y="-389.83" font-family="Times,serif" font-size="14.00">Información Personal</text>
<polygon fill="none" stroke="black" points="253.34,-361.13 253.34,-383.63 417.59,-383.63 417.59,-361.13 253.34,-361.13"/>
<text text-anchor="start" x="256.34" y="-367.33" font-family="Times,serif" font-size="14.00">Nombre, Correo, Contraseña</text>
</g>
<!-- cliente&#45;&gt;informacionPersonal -->
<g id="edge9" class="edge">
<title>cliente&#45;&gt;informacionPersonal:title</title>
<path fill="none" stroke="black" d="M571.09,-213.09C548.53,-226.95 516.77,-248.66 493.98,-273.19 460.4,-309.35 432.99,-362.22 422.29,-384.32"/>
<polygon fill="black" stroke="black" points="419.18,-382.72 418.1,-393.26 425.52,-385.69 419.18,-382.72"/>
<text text-anchor="middle" x="469.26" y="-290.88" font-family="Times,serif" font-size="14.00">Tiene</text>
</g>
<!-- servicio -->
<g id="node5" class="node">
<title>servicio</title>
<polygon fill="none" stroke="black" points="408.62,-101.78 347.62,-101.78 347.62,-65.78 408.62,-65.78 408.62,-101.78"/>
<text text-anchor="middle" x="378.12" y="-78.73" font-family="Times,serif" font-size="14.00">Servicio</text>
</g>
<!-- cliente&#45;&gt;servicio -->
<g id="edge4" class="edge">
<title>cliente&#45;&gt;servicio</title>
<path fill="none" stroke="black" d="M570.91,-182.85C532.24,-162.98 462.22,-127 418.05,-104.3"/>
<polygon fill="black" stroke="black" points="418.23,-104.39 411.39,-95.82 413.49,-101.96 409.63,-99.98 409.63,-99.98 409.63,-99.98 413.49,-101.96 407.28,-103.83 418.23,-104.39"/>
<text text-anchor="middle" x="472.73" y="-163.28" font-family="Times,serif" font-size="14.00">Agenda</text>
<text text-anchor="middle" x="472.73" y="-146.78" font-family="Times,serif" font-size="14.00">Cancela</text>
</g>
<!-- historial -->
<g id="node6" class="node">
<title>historial</title>
<polygon fill="none" stroke="black" points="628.21,-36 564.96,-36 564.96,0 628.21,0 628.21,-36"/>
<text text-anchor="middle" x="596.59" y="-12.95" font-family="Times,serif" font-size="14.00">Historial</text>
</g>
<!-- cliente&#45;&gt;historial -->
<g id="edge7" class="edge">
<title>cliente&#45;&gt;historial</title>
<path fill="none" stroke="black" d="M598.64,-179.05C598.24,-148.13 597.44,-85.03 596.97,-47.65"/>
<polygon fill="black" stroke="black" points="600.47,-47.96 596.84,-38 593.47,-48.04 600.47,-47.96"/>
<text text-anchor="middle" x="582.43" y="-116.55" font-family="Times,serif" font-size="14.00">Tiene</text>
</g>
<!-- inicioSesion -->
<g id="node8" class="node">
<title>inicioSesion</title>
<polygon fill="none" stroke="black" points="845.65,-371.58 753.9,-371.58 753.9,-335.58 845.65,-335.58 845.65,-371.58"/>
<text text-anchor="middle" x="799.78" y="-348.53" font-family="Times,serif" font-size="14.00">Autenticación</text>
</g>
<!-- cliente&#45;&gt;inicioSesion -->
<g id="edge5" class="edge">
<title>cliente&#45;&gt;inicioSesion</title>
<path fill="none" stroke="black" d="M622.31,-215.46C658.13,-243.34 726.6,-296.63 767.22,-328.24"/>
<polygon fill="black" stroke="black" points="764.94,-330.91 774.98,-334.29 769.24,-325.38 764.94,-330.91"/>
<text text-anchor="middle" x="678.26" y="-275.05" font-family="Times,serif" font-size="14.00">Puede</text>
</g>
<!-- contacto -->
<g id="node3" class="node">
<title>contacto</title>
<polygon fill="none" stroke="black" points="680,-508 680,-530.5 797,-530.5 797,-508 680,-508"/>
<text text-anchor="start" x="714.12" y="-514.2" font-family="Times,serif" font-size="14.00">Contacto</text>
<polygon fill="none" stroke="black" points="680,-436 680,-508 797,-508 797,-436 680,-436"/>
<text text-anchor="start" x="697.62" y="-491.7" font-family="Times,serif" font-size="14.00">Redes Sociales</text>
<text text-anchor="start" x="683" y="-475.2" font-family="Times,serif" font-size="14.00">Número de contacto</text>
<text text-anchor="start" x="687.88" y="-458.7" font-family="Times,serif" font-size="14.00">Correo electrónico</text>
<text text-anchor="start" x="711.88" y="-442.2" font-family="Times,serif" font-size="14.00">Dirección</text>
</g>
<!-- estilista -->
<g id="node4" class="node">
<title>estilista</title>
<polygon fill="none" stroke="black" points="67.48,-373.93 7.98,-373.93 7.98,-337.93 67.48,-337.93 67.48,-373.93"/>
<text text-anchor="middle" x="37.73" y="-350.88" font-family="Times,serif" font-size="14.00">Estilista</text>
</g>
<!-- estilista&#45;&gt;informacionPersonal -->
<g id="edge1" class="edge">
<title>estilista&#45;&gt;informacionPersonal:title</title>
<path fill="none" stroke="black" d="M67.73,-361.31C116.35,-370.04 210.19,-386.87 242.34,-392.64"/>
<polygon fill="black" stroke="black" points="241.51,-396.04 251.97,-394.36 242.75,-389.15 241.51,-396.04"/>
<text text-anchor="middle" x="139.66" y="-380.17" font-family="Times,serif" font-size="14.00">Tiene</text>
</g>
<!-- informacionServicio -->
<g id="node7" class="node">
<title>informacionServicio</title>
<polygon fill="none" stroke="black" points="8,-146.78 8,-169.28 122.75,-169.28 122.75,-146.78 8,-146.78"/>
<text text-anchor="start" x="54.12" y="-152.98" font-family="Times,serif" font-size="14.00">Cita</text>
<polygon fill="none" stroke="black" points="8,-91.28 8,-146.78 122.75,-146.78 122.75,-91.28 8,-91.28"/>
<text text-anchor="start" x="17.37" y="-130.48" font-family="Times,serif" font-size="14.00">Nombre, Estilista</text>
<text text-anchor="start" x="32" y="-113.98" font-family="Times,serif" font-size="14.00">Hora, Fecha</text>
<text text-anchor="start" x="49.25" y="-97.48" font-family="Times,serif" font-size="14.00">Lugar</text>
<polygon fill="none" stroke="black" points="8,-68.78 8,-91.28 122.75,-91.28 122.75,-68.78 8,-68.78"/>
<text text-anchor="start" x="11" y="-74.98" font-family="Times,serif" font-size="14.00">Detalles adicionales</text>
<polygon fill="none" stroke="black" points="8,-46.28 8,-68.78 122.75,-68.78 122.75,-46.28 8,-46.28"/>
<text text-anchor="start" x="48.12" y="-52.48" font-family="Times,serif" font-size="14.00">Extras</text>
</g>
<!-- servicio&#45;&gt;informacionServicio -->
<g id="edge12" class="edge">
<title>servicio&#45;&gt;informacionServicio:title</title>
<path fill="none" stroke="black" d="M347.27,-92.71C290.01,-109.27 169.79,-144.06 133.18,-154.65"/>
<polygon fill="black" stroke="black" points="132.46,-151.22 123.83,-157.36 134.41,-157.94 132.46,-151.22"/>
<text text-anchor="middle" x="224.85" y="-126.88" font-family="Times,serif" font-size="14.00">Tiene</text>
</g>
<!-- historial&#45;&gt;servicio -->
<g id="edge2" class="edge">
<title>historial&#45;&gt;servicio</title>
<path fill="none" stroke="black" d="M564.82,-27.56C526.23,-39.19 461.05,-58.81 418.82,-71.53"/>
<polygon fill="black" stroke="black" points="418.76,-71.54 407.89,-70.12 413.65,-73.08 409.5,-74.33 409.5,-74.33 409.5,-74.33 413.65,-73.08 410.48,-78.73 418.76,-71.54"/>
<text text-anchor="middle" x="476.44" y="-52.75" font-family="Times,serif" font-size="14.00">Tiene</text>
</g>
<!-- informacionServicio&#45;&gt;estilista -->
<g id="edge3" class="edge">
<title>informacionServicio:title&#45;&gt;estilista</title>
<path fill="none" stroke="black" d="M65.37,-169.78C65.37,-169.78 49.89,-274.03 42.1,-326.5"/>
<polygon fill="black" stroke="black" points="38.66,-325.84 40.65,-336.25 45.58,-326.87 38.66,-325.84"/>
<text text-anchor="middle" x="38.36" y="-251.34" font-family="Times,serif" font-size="14.00">Tiene</text>
</g>
<!-- administrador -->
<g id="node9" class="node">
<title>administrador</title>
<polygon fill="none" stroke="black" points="592.68,-312.39 497.18,-312.39 497.18,-276.39 592.68,-276.39 592.68,-312.39"/>
<text text-anchor="middle" x="544.93" y="-289.34" font-family="Times,serif" font-size="14.00">Administrador</text>
</g>
<!-- administrador&#45;&gt;informacionPersonal -->
<g id="edge8" class="edge">
<title>administrador&#45;&gt;informacionPersonal:title</title>
<path fill="none" stroke="black" d="M521.55,-312.78C492.95,-335.27 445.92,-372.26 426.39,-387.61"/>
<polygon fill="black" stroke="black" points="424.35,-384.76 418.65,-393.7 428.68,-390.27 424.35,-384.76"/>
<text text-anchor="middle" x="458.6" y="-353.39" font-family="Times,serif" font-size="14.00">Tiene</text>
</g>
<!-- administrador&#45;&gt;servicio -->
<g id="edge11" class="edge">
<title>administrador&#45;&gt;servicio</title>
<path fill="none" stroke="black" d="M530.42,-276.07C501.03,-238.96 434.33,-154.75 399.77,-111.12"/>
<polygon fill="black" stroke="black" points="402.61,-109.06 393.65,-103.4 397.12,-113.41 402.61,-109.06"/>
<text text-anchor="middle" x="434.35" y="-196.8" font-family="Times,serif" font-size="14.00">Administra</text>
</g>
<!-- administrador&#45;&gt;historial -->
<g id="edge10" class="edge">
<title>administrador&#45;&gt;historial</title>
<path fill="none" stroke="black" d="M548.32,-276.26C557.06,-229.5 580.42,-104.54 591.11,-47.33"/>
<polygon fill="black" stroke="black" points="594.51,-48.16 592.91,-37.69 587.63,-46.88 594.51,-48.16"/>
<text text-anchor="middle" x="551.34" y="-164.99" font-family="Times,serif" font-size="14.00">Utiliza</text>
</g>
<!-- administrador&#45;&gt;inicioSesion -->
<g id="edge6" class="edge">
<title>administrador&#45;&gt;inicioSesion</title>
<path fill="none" stroke="black" d="M593.16,-305.6C635.6,-315.45 697.45,-329.82 742.41,-340.26"/>
<polygon fill="black" stroke="black" points="741.45,-343.63 751.98,-342.48 743.03,-336.81 741.45,-343.63"/>
<text text-anchor="middle" x="651.29" y="-326.13" font-family="Times,serif" font-size="14.00">Puede</text>
</g>
</g>
</svg>
