<?xml version="1.0" encoding="us-ascii" standalone="no"?><svg xmlns="http://www.w3.org/2000/svg" xmlns:xlink="http://www.w3.org/1999/xlink" contentStyleType="text/css" height="921px" preserveAspectRatio="none" style="width:453px;height:921px;background:#FFFFFF;" version="1.1" viewBox="0 0 453 921" width="453px" zoomAndPan="magnify"><defs/><g><!--entity cliente--><g id="elem_cliente"><ellipse cx="55.5" cy="625.3" fill="#F1F1F1" rx="16" ry="16" style="stroke:#181818;stroke-width:0.5;"/><path d="M55.5,645.3 C59.5,645.3 62.5,645.3 66.5,641.3 C74.5,641.3 82.5,649.3 82.5,657.3 L82.5,661.3 C82.5,665.3 78.5,669.3 74.5,669.3 L36.5,669.3 C32.5,669.3 28.5,665.3 28.5,661.3 L28.5,657.3 C28.5,649.3 36.5,641.3 44.5,641.3 C48.5,645.3 51.5,645.3 55.5,645.3 " fill="#F1F1F1" style="stroke:#181818;stroke-width:0.5;"/><text fill="#000000" font-family="sans-serif" font-size="14" lengthAdjust="spacing" textLength="47" x="32" y="683.8752">Cliente</text></g><!--entity admin--><g id="elem_admin"><ellipse cx="55.5" cy="184.3" fill="#F1F1F1" rx="16" ry="16" style="stroke:#181818;stroke-width:0.5;"/><path d="M55.5,204.3 C59.5,204.3 62.5,204.3 66.5,200.3 C74.5,200.3 82.5,208.3 82.5,216.3 L82.5,220.3 C82.5,224.3 78.5,228.3 74.5,228.3 L36.5,228.3 C32.5,228.3 28.5,224.3 28.5,220.3 L28.5,216.3 C28.5,208.3 36.5,200.3 44.5,200.3 C48.5,204.3 51.5,204.3 55.5,204.3 " fill="#F1F1F1" style="stroke:#181818;stroke-width:0.5;"/><text fill="#000000" font-family="sans-serif" font-size="14" lengthAdjust="spacing" textLength="99" x="6" y="242.8752">Administrador</text></g><g id="elem_Ver lista de servicios disponibles"><ellipse cx="306.2148" cy="474.809" fill="#F1F1F1" rx="129.8448" ry="28.369" style="stroke:#181818;stroke-width:0.5;"/><text fill="#000000" font-family="sans-serif" font-size="14" lengthAdjust="spacing" textLength="227" x="192.7148" y="478.3768">Ver lista de servicios disponibles</text></g><g id="elem_Ver detalles de un servicio"><ellipse cx="306.2133" cy="562.8067" fill="#F1F1F1" rx="109.8333" ry="24.3667" style="stroke:#181818;stroke-width:0.5;"/><text fill="#000000" font-family="sans-serif" font-size="14" lengthAdjust="spacing" textLength="184" x="214.2133" y="566.3745">Ver detalles de un servicio</text></g><g id="elem_Filtrar servicios por categor&#237;a"><ellipse cx="306.2097" cy="647.8119" fill="#F1F1F1" rx="118.6097" ry="26.1219" style="stroke:#181818;stroke-width:0.5;"/><text fill="#000000" font-family="sans-serif" font-size="14" lengthAdjust="spacing" textLength="203" x="204.7097" y="651.3798">Filtrar servicios por categor&#237;a</text></g><g id="elem_Buscar servicios por palabra clave"><ellipse cx="306.206" cy="737.8132" fill="#F1F1F1" rx="134.566" ry="29.3132" style="stroke:#181818;stroke-width:0.5;"/><text fill="#000000" font-family="sans-serif" font-size="14" lengthAdjust="spacing" textLength="237" x="187.706" y="741.3811">Buscar servicios por palabra clave</text></g><g id="elem_Agendar servicio"><ellipse cx="306.2064" cy="820.8093" fill="#F1F1F1" rx="79.8464" ry="18.3693" style="stroke:#181818;stroke-width:0.5;"/><text fill="#000000" font-family="sans-serif" font-size="14" lengthAdjust="spacing" textLength="116" x="248.2064" y="824.3771">Agendar servicio</text></g><g id="elem_Elegir fecha de la cita"><ellipse cx="306.2144" cy="894.8129" fill="#F1F1F1" rx="93.1644" ry="21.0329" style="stroke:#181818;stroke-width:0.5;"/><text fill="#000000" font-family="sans-serif" font-size="14" lengthAdjust="spacing" textLength="147" x="232.7144" y="898.3807">Elegir fecha de la cita</text></g><g id="elem_Gestionar servicios"><ellipse cx="306.2072" cy="25.8114" fill="#F1F1F1" rx="87.0572" ry="19.8114" style="stroke:#181818;stroke-width:0.5;"/><text fill="#000000" font-family="sans-serif" font-size="14" lengthAdjust="spacing" textLength="133" x="239.7072" y="29.3793">Gestionar servicios</text></g><g id="elem_Administrar categor&#237;as de servicios"><ellipse cx="306.2074" cy="110.8115" fill="#F1F1F1" rx="138.3574" ry="30.0715" style="stroke:#181818;stroke-width:0.5;"/><text fill="#000000" font-family="sans-serif" font-size="14" lengthAdjust="spacing" textLength="245" x="183.7074" y="114.3793">Administrar categor&#237;as de servicios</text></g><g id="elem_Ver estad&#237;sticas de uso de servicios"><ellipse cx="306.2086" cy="206.8117" fill="#F1F1F1" rx="141.2086" ry="30.6417" style="stroke:#181818;stroke-width:0.5;"/><text fill="#000000" font-family="sans-serif" font-size="14" lengthAdjust="spacing" textLength="251" x="180.7086" y="210.3796">Ver estad&#237;sticas de uso de servicios</text></g><g id="elem_Ver historial de servicios"><ellipse cx="306.214" cy="295.8108" fill="#F1F1F1" rx="103.904" ry="23.1808" style="stroke:#181818;stroke-width:0.5;"/><text fill="#000000" font-family="sans-serif" font-size="14" lengthAdjust="spacing" textLength="171" x="220.714" y="299.3787">Ver historial de servicios</text></g><g id="elem_Ver detalles de servicio concluido"><ellipse cx="306.2108" cy="382.8062" fill="#F1F1F1" rx="131.7308" ry="28.7462" style="stroke:#181818;stroke-width:0.5;"/><text fill="#000000" font-family="sans-serif" font-size="14" lengthAdjust="spacing" textLength="231" x="190.7108" y="386.374">Ver detalles de servicio concluido</text></g><!--link cliente to Ver lista de servicios disponibles--><g id="link_cliente_Ver lista de servicios disponibles"><path d="M83.31,613.09 C119.84,613.09 179.42,613.09 179.42,613.09 C179.42,613.09 179.42,515.1 179.42,487.48 " fill="none" id="cliente-to-Ver lista de servicios disponibles" style="stroke:#181818;stroke-width:1.0;"/><polygon fill="#181818" points="179.42,481.48,175.42,490.48,179.42,486.48,183.42,490.48,179.42,481.48" style="stroke:#181818;stroke-width:1.0;"/></g><!--link cliente to Ver lista de servicios disponibles--><g id="link_cliente_Ver lista de servicios disponibles"><path d="M83.35,617.39 C120.71,617.39 182.42,617.39 182.42,617.39 C182.42,617.39 182.42,520.94 182.42,489.73 " fill="none" id="cliente-to-Ver lista de servicios disponibles-1" style="stroke:#181818;stroke-width:1.0;"/><polygon fill="#181818" points="182.42,483.73,178.42,492.73,182.42,488.73,186.42,492.73,182.42,483.73" style="stroke:#181818;stroke-width:1.0;"/></g><!--link cliente to Ver detalles de un servicio--><g id="link_cliente_Ver detalles de un servicio"><path d="M56.42,608.79 C56.42,586.44 56.42,562.81 56.42,562.81 C56.42,562.81 123,562.81 189.92,562.81 " fill="none" id="cliente-to-Ver detalles de un servicio" style="stroke:#181818;stroke-width:1.0;"/><polygon fill="#181818" points="195.92,562.81,186.92,558.81,190.92,562.81,186.92,566.81,195.92,562.81" style="stroke:#181818;stroke-width:1.0;"/></g><!--link cliente to Filtrar servicios por categor?a--><g id="link_cliente_Filtrar servicios por categor&#237;a"><path d="M83.29,647.81 C108.79,647.81 142.38,647.81 181.16,647.81 " fill="none" id="cliente-to-Filtrar servicios por categor&#237;a" style="stroke:#181818;stroke-width:1.0;"/><polygon fill="#181818" points="187.16,647.81,178.16,643.81,182.16,647.81,178.16,651.81,187.16,647.81" style="stroke:#181818;stroke-width:1.0;"/></g><!--link cliente to Buscar servicios por palabra clave--><g id="link_cliente_Buscar servicios por palabra clave"><path d="M83.37,680.37 C121.54,680.37 185.42,680.37 185.42,680.37 C185.42,680.37 185.42,701.52 185.42,718.49 " fill="none" id="cliente-to-Buscar servicios por palabra clave" style="stroke:#181818;stroke-width:1.0;"/><polygon fill="#181818" points="185.42,724.49,189.42,715.49,185.42,719.49,181.42,715.49,185.42,724.49" style="stroke:#181818;stroke-width:1.0;"/></g><!--link cliente to Agendar servicio--><g id="link_cliente_Agendar servicio"><path d="M65.42,687.06 C65.42,738.11 65.42,820.81 65.42,820.81 C65.42,820.81 149.98,820.81 220.03,820.81 " fill="none" id="cliente-to-Agendar servicio" style="stroke:#181818;stroke-width:1.0;"/><polygon fill="#181818" points="226.03,820.81,217.03,816.81,221.03,820.81,217.03,824.81,226.03,820.81" style="stroke:#181818;stroke-width:1.0;"/></g><!--link cliente to Elegir fecha de la cita--><g id="link_cliente_Elegir fecha de la cita"><path d="M46.42,687.22 C46.42,756.95 46.42,894.81 46.42,894.81 C46.42,894.81 132.31,894.81 206.78,894.81 " fill="none" id="cliente-to-Elegir fecha de la cita" style="stroke:#181818;stroke-width:1.0;"/><polygon fill="#181818" points="212.78,894.81,203.78,890.81,207.78,894.81,203.78,898.81,212.78,894.81" style="stroke:#181818;stroke-width:1.0;"/></g><!--link admin to Gestionar servicios--><g id="link_admin_Gestionar servicios"><path d="M39.42,167.53 C39.42,114.3 39.42,25.81 39.42,25.81 C39.42,25.81 135.04,25.81 212.85,25.81 " fill="none" id="admin-to-Gestionar servicios" style="stroke:#181818;stroke-width:1.0;"/><polygon fill="#181818" points="218.85,25.81,209.85,21.81,213.85,25.81,209.85,29.81,218.85,25.81" style="stroke:#181818;stroke-width:1.0;"/></g><!--link admin to Administrar categor?as de servicios--><g id="link_admin_Administrar categor&#237;as de servicios"><path d="M72.42,167.48 C72.42,140.97 72.42,110.81 72.42,110.81 C72.42,110.81 111.17,110.81 161.51,110.81 " fill="none" id="admin-to-Administrar categor&#237;as de servicios" style="stroke:#181818;stroke-width:1.0;"/><polygon fill="#181818" points="167.51,110.81,158.51,106.81,162.51,110.81,158.51,114.81,167.51,110.81" style="stroke:#181818;stroke-width:1.0;"/></g><!--link admin to Ver estad?sticas de uso de servicios--><g id="link_admin_Ver estad&#237;sticas de uso de servicios"><path d="M105.33,206.81 C122.82,206.81 137.45,206.81 158.7,206.81 " fill="none" id="admin-to-Ver estad&#237;sticas de uso de servicios" style="stroke:#181818;stroke-width:1.0;"/><polygon fill="#181818" points="164.7,206.81,155.7,202.81,159.7,206.81,155.7,210.81,164.7,206.81" style="stroke:#181818;stroke-width:1.0;"/></g><!--link admin to Ver historial de servicios--><g id="link_admin_Ver historial de servicios"><path d="M94.42,246.1 C94.42,269.94 94.42,295.81 94.42,295.81 C94.42,295.81 142.4,295.81 195.86,295.81 " fill="none" id="admin-to-Ver historial de servicios" style="stroke:#181818;stroke-width:1.0;"/><polygon fill="#181818" points="201.86,295.81,192.86,291.81,196.86,295.81,192.86,299.81,201.86,295.81" style="stroke:#181818;stroke-width:1.0;"/></g><!--link admin to Ver detalles de servicio concluido--><g id="link_admin_Ver detalles de servicio concluido"><path d="M105.37,241.63 C143.09,241.63 188.42,241.63 188.42,241.63 C188.42,241.63 188.42,328.38 188.42,363.53 " fill="none" id="admin-to-Ver detalles de servicio concluido" style="stroke:#181818;stroke-width:1.0;"/><polygon fill="#181818" points="188.42,369.53,192.42,360.53,188.42,364.53,184.42,360.53,188.42,369.53" style="stroke:#181818;stroke-width:1.0;"/></g><!--SRC=[dP51RW8n34NtEOMNPS45M5IYLTi3LEhU96R6QaX6jWV4eJW55wi7A1sOIfMwcup_-p_-qKyk7Gfk0ADLURTz9i0TQTrGqEimSo7RTmHLhAqXP5eRM0NXfZL8B1IDQmad4tZEJCNSHo6UFo-3PTfmOJN1v2SVu_0ZXCL5je3v_14UFaWyKGqX4IZ9bYDNzHZjQk5L9ftzXYGop3uSgBvSmOdsbRFVG4REdTyceb5JvNZ02V3KQvpeEyou4lGDSKiJPDbGIIDc8dZ9rB30cc9xMZEx4vjdXyMfb8liZNGeTfm-krNyT3hUGM-gkqE6ijmNq_7Wxl4ixhNUCLEezPmgZFalz_5JVEiWrX9ppwdE_lNYNm00]--></g></svg>